<!-- Originally From https://docs.juce.com/juce-logo.svg -->
<svg id="Layer_1" xmlns="http://www.w3.org/2000/svg" xmlns:xlink="http://www.w3.org/1999/xlink" width="36" height="36" viewBox="0 0 36 36"><style><![CDATA[
	.st0{clip-path:url(#SVGID_2_);fill:#A65A95;}
	.st1{clip-path:url(#SVGID_2_);fill:#E67E3C;}
	.st2{clip-path:url(#SVGID_2_);fill:#E73E51;}
	.st3{clip-path:url(#SVGID_2_);fill:#F0E049;}
	.st4{clip-path:url(#SVGID_2_);fill:#F19F53;}
	.st5{clip-path:url(#SVGID_2_);fill:#F5BD47;}
	.st6{clip-path:url(#SVGID_2_);fill:#288DC1;}
	.st7{clip-path:url(#SVGID_2_);fill:#FFFFFF;}
	.st8{clip-path:url(#SVGID_2_);fill:#9CB6D3;}
	.st9{clip-path:url(#SVGID_2_);fill:#6CC04A;}
]]></style><defs><path id="SVGID_1_" d="M0 0h36v36H0z"/></defs><clipPath id="SVGID_2_"><use xlink:href="#SVGID_1_" overflow="visible"/></clipPath><path class="st9" d="M5.2 5.2c7-7 18.4-7 25.4 0s7 18.4 0 25.4-18.4 7-25.4 0c-6.9-7-6.9-18.4 0-25.4"/><path class="st7" d="M29.8 29.8c6.5-6.5 6.5-17.2 0-23.7S12.6-.4 6.1 6.1s-6.5 17.2 0 23.7 17.1 6.5 23.7 0"/><path class="st8" d="M28.4 27.5c.4.4 1.1.4 1.5 0l.1-.1c1.8-2.2 2.9-4.9 3.2-7.7 0-.3-.1-.6-.3-.9-.2-.2-.5-.4-.8-.4H19.9c-.2 0-.3.2-.1.4l8.6 8.7z"/><path class="st0" d="M8.3 28.4c-.2.2-.3.5-.3.8 0 .3.2.6.4.8 2.2 1.8 4.9 2.9 7.7 3.2.3 0 .7-.1.9-.3.2-.2.3-.5.3-.8V19.9c0-.2-.2-.3-.4-.1l-8.6 8.6z"/><path class="st6" d="M18.9 33c.2.2.5.3.9.3 2.8-.3 5.5-1.4 7.7-3.2l.1-.1c.4-.4.4-1.1 0-1.5l-8.7-8.7c-.1-.1-.4 0-.4.1v12.2c0 .4.2.7.4.9"/><path class="st1" d="M7.5 8.3c-.5-.4-1.1-.4-1.6 0l-.1.1c-1.8 2.2-2.9 4.9-3.2 7.7 0 .3.1.6.3.8.2.2.5.4.8.4H16c.2 0 .3-.2.1-.4L7.5 8.3z"/><path class="st2" d="M2.9 18.8c-.2.2-.3.5-.3.9.3 2.8 1.4 5.5 3.2 7.7.2.3.5.4.8.4.3 0 .6-.1.8-.3l8.6-8.6c.1-.1 0-.4-.1-.4H3.7c-.3 0-.6.1-.8.3"/><path class="st3" d="M32.9 17c.2-.2.3-.5.3-.9-.3-2.8-1.4-5.5-3.2-7.7-.2-.2-.5-.4-.8-.4-.3 0-.6.1-.8.3L19.7 17c-.1.1 0 .4.1.4H32c.4-.1.7-.2.9-.4"/><path class="st5" d="M18.9 16.1l8.6-8.6c.2-.2.4-.5.3-.8 0-.3-.2-.6-.4-.8-2.2-1.8-4.9-2.9-7.7-3.2-.3 0-.7.1-.9.3-.2.2-.3.5-.3.8V16c0 .2.3.3.4.1"/><path class="st4" d="M17.3 3.7c0-.3-.1-.6-.4-.8-.2-.2-.5-.3-.9-.3-2.7.4-5.4 1.5-7.6 3.2l-.1.1c-.2.2-.3.5-.3.9 0 .2.1.5.3.7l8.6 8.6c.1.1.4 0 .4-.2V3.7z"/></svg>